<mxfile host="65bd71144e">
    <diagram id="xenNwg3M72bbauZF8_PR" name="class diagram">
        <mxGraphModel dx="975" dy="632" grid="1" gridSize="10" guides="1" tooltips="1" connect="1" arrows="1" fold="1" page="1" pageScale="1" pageWidth="827" pageHeight="1169" math="0" shadow="0">
            <root>
                <mxCell id="0"/>
                <mxCell id="1" parent="0"/>
                <mxCell id="EoxH1q3QeCC86CampILG-1" value="Patient" style="html=1;" vertex="1" parent="1">
                    <mxGeometry x="40" y="257" width="110" height="50" as="geometry"/>
                </mxCell>
                <mxCell id="EoxH1q3QeCC86CampILG-2" value="Doctor" style="swimlane;fontStyle=0;childLayout=stackLayout;horizontal=1;startSize=26;fillColor=none;horizontalStack=0;resizeParent=1;resizeParentMax=0;resizeLast=0;collapsible=1;marginBottom=0;" vertex="1" parent="1">
                    <mxGeometry x="200" y="230" width="140" height="104" as="geometry"/>
                </mxCell>
                <mxCell id="EoxH1q3QeCC86CampILG-3" value="DoctorID" style="text;strokeColor=none;fillColor=none;align=left;verticalAlign=top;spacingLeft=4;spacingRight=4;overflow=hidden;rotatable=0;points=[[0,0.5],[1,0.5]];portConstraint=eastwest;" vertex="1" parent="EoxH1q3QeCC86CampILG-2">
                    <mxGeometry y="26" width="140" height="26" as="geometry"/>
                </mxCell>
                <mxCell id="EoxH1q3QeCC86CampILG-4" value="DoctorName" style="text;strokeColor=none;fillColor=none;align=left;verticalAlign=top;spacingLeft=4;spacingRight=4;overflow=hidden;rotatable=0;points=[[0,0.5],[1,0.5]];portConstraint=eastwest;" vertex="1" parent="EoxH1q3QeCC86CampILG-2">
                    <mxGeometry y="52" width="140" height="26" as="geometry"/>
                </mxCell>
                <mxCell id="EoxH1q3QeCC86CampILG-5" value="salasry" style="text;strokeColor=none;fillColor=none;align=left;verticalAlign=top;spacingLeft=4;spacingRight=4;overflow=hidden;rotatable=0;points=[[0,0.5],[1,0.5]];portConstraint=eastwest;" vertex="1" parent="EoxH1q3QeCC86CampILG-2">
                    <mxGeometry y="78" width="140" height="26" as="geometry"/>
                </mxCell>
                <mxCell id="EoxH1q3QeCC86CampILG-6" value="Policeofficer" style="swimlane;fontStyle=1;align=center;verticalAlign=top;childLayout=stackLayout;horizontal=1;startSize=26;horizontalStack=0;resizeParent=1;resizeParentMax=0;resizeLast=0;collapsible=1;marginBottom=0;" vertex="1" parent="1">
                    <mxGeometry x="382" y="200" width="160" height="164" as="geometry"/>
                </mxCell>
                <mxCell id="EoxH1q3QeCC86CampILG-10" value="PoliceofficerID" style="text;strokeColor=none;fillColor=none;align=left;verticalAlign=top;spacingLeft=4;spacingRight=4;overflow=hidden;rotatable=0;points=[[0,0.5],[1,0.5]];portConstraint=eastwest;" vertex="1" parent="EoxH1q3QeCC86CampILG-6">
                    <mxGeometry y="26" width="160" height="26" as="geometry"/>
                </mxCell>
                <mxCell id="EoxH1q3QeCC86CampILG-11" value="PoliceofficerName" style="text;strokeColor=none;fillColor=none;align=left;verticalAlign=top;spacingLeft=4;spacingRight=4;overflow=hidden;rotatable=0;points=[[0,0.5],[1,0.5]];portConstraint=eastwest;" vertex="1" parent="EoxH1q3QeCC86CampILG-6">
                    <mxGeometry y="52" width="160" height="26" as="geometry"/>
                </mxCell>
                <mxCell id="5GiDKDkIsNnatGSqelfq-1" value="PoliceofficerAddr" style="text;strokeColor=none;fillColor=none;align=left;verticalAlign=top;spacingLeft=4;spacingRight=4;overflow=hidden;rotatable=0;points=[[0,0.5],[1,0.5]];portConstraint=eastwest;" vertex="1" parent="EoxH1q3QeCC86CampILG-6">
                    <mxGeometry y="78" width="160" height="26" as="geometry"/>
                </mxCell>
                <mxCell id="EoxH1q3QeCC86CampILG-8" value="" style="line;strokeWidth=1;fillColor=none;align=left;verticalAlign=middle;spacingTop=-1;spacingLeft=3;spacingRight=3;rotatable=0;labelPosition=right;points=[];portConstraint=eastwest;strokeColor=inherit;" vertex="1" parent="EoxH1q3QeCC86CampILG-6">
                    <mxGeometry y="104" width="160" height="8" as="geometry"/>
                </mxCell>
                <mxCell id="EoxH1q3QeCC86CampILG-9" value="Policeofficer()" style="text;strokeColor=none;fillColor=none;align=left;verticalAlign=top;spacingLeft=4;spacingRight=4;overflow=hidden;rotatable=0;points=[[0,0.5],[1,0.5]];portConstraint=eastwest;" vertex="1" parent="EoxH1q3QeCC86CampILG-6">
                    <mxGeometry y="112" width="160" height="26" as="geometry"/>
                </mxCell>
                <mxCell id="EoxH1q3QeCC86CampILG-12" value="GetPoliceofficerRec()" style="text;strokeColor=none;fillColor=none;align=left;verticalAlign=top;spacingLeft=4;spacingRight=4;overflow=hidden;rotatable=0;points=[[0,0.5],[1,0.5]];portConstraint=eastwest;" vertex="1" parent="EoxH1q3QeCC86CampILG-6">
                    <mxGeometry y="138" width="160" height="26" as="geometry"/>
                </mxCell>
            </root>
        </mxGraphModel>
    </diagram>
    <diagram id="42_JA97iBddI1AWJHv9k" name="elationship diagram">
        <mxGraphModel dx="975" dy="632" grid="1" gridSize="10" guides="1" tooltips="1" connect="1" arrows="1" fold="1" page="1" pageScale="1" pageWidth="827" pageHeight="1169" math="0" shadow="0">
            <root>
                <mxCell id="0"/>
                <mxCell id="1" parent="0"/>
                <mxCell id="N6lBhgtLrG2i4OlbOwBJ-1" value="teacher" style="html=1;fillColor=none;" vertex="1" parent="1">
                    <mxGeometry x="80" y="250" width="110" height="50" as="geometry"/>
                </mxCell>
                <mxCell id="N6lBhgtLrG2i4OlbOwBJ-2" value="student" style="html=1;fillColor=none;" vertex="1" parent="1">
                    <mxGeometry x="320" y="250" width="110" height="50" as="geometry"/>
                </mxCell>
                <mxCell id="N6lBhgtLrG2i4OlbOwBJ-6" value="teaceh" style="text;align=center;fontStyle=1;verticalAlign=middle;spacingLeft=3;spacingRight=3;strokeColor=none;rotatable=0;points=[[0,0.5],[1,0.5]];portConstraint=eastwest;" vertex="1" parent="1">
                    <mxGeometry x="215" y="245" width="80" height="26" as="geometry"/>
                </mxCell>
                <mxCell id="N6lBhgtLrG2i4OlbOwBJ-7" value="" style="triangle;whiteSpace=wrap;html=1;rotation=105;fillColor=#0050ef;fontColor=#ffffff;strokeColor=#001DBC;" vertex="1" parent="1">
                    <mxGeometry x="270" y="240" width="34.36" height="30" as="geometry"/>
                </mxCell>
                <mxCell id="K0SiPHby5LBgVODoX6dD-1" value="" style="endArrow=classic;html=1;entryX=0;entryY=0.5;entryDx=0;entryDy=0;" edge="1" parent="1" target="N6lBhgtLrG2i4OlbOwBJ-2">
                    <mxGeometry width="50" height="50" relative="1" as="geometry">
                        <mxPoint x="190" y="274.5" as="sourcePoint"/>
                        <mxPoint x="290" y="274.5" as="targetPoint"/>
                    </mxGeometry>
                </mxCell>
            </root>
        </mxGraphModel>
    </diagram>
</mxfile>